<svg xmlns="http://www.w3.org/2000/svg" viewBox="0 0 1236 546" width="1236" height="546"><rect width="1236" height="546" fill="#FAFAF7"/><g transform="translate(24,24)">
    <rect width="380" height="150" rx="14" fill="#fff" stroke="#E6EAF2"/>
    <rect x="26" y="34" width="64" height="64" rx="16" fill="#EFF4FF"/>
    <svg x="40" y="48" width="36" height="36"><path fill="#2563EB" d="M11 6c0-.55.45-1 1-1s1 .45 1 1s-.45 1-1 1s-1-.45-1-1M8 9c.55 0 1-.45 1-1s-.45-1-1-1s-1 .45-1 1s.45 1 1 1M6 5c0-.55-.45-1-1-1s-1 .45-1 1s.45 1 1 1s1-.45 1-1m3-1c.55 0 1-.45 1-1s-.45-1-1-1s-1 .45-1 1s.45 1 1 1m6 0c.55 0 1-.45 1-1s-.45-1-1-1s-1 .45-1 1s.45 1 1 1m4 0c-.55 0-1 .45-1 1s.45 1 1 1s1-.45 1-1s-.45-1-1-1m-4 4c0 .55.45 1 1 1s1-.45 1-1s-.45-1-1-1s-1 .45-1 1m3.5 5.07c0 .71-.26 1.39-.69 1.93c.42.54.69 1.22.69 1.93c0 1.73-1.43 3.14-3.16 3.14l-.43-.03C14.44 21.19 13.31 22 12 22s-2.44-.81-2.91-1.96l-.43.03c-1.74 0-3.16-1.41-3.16-3.14c0-.71.26-1.39.69-1.93c-.42-.54-.69-1.22-.69-1.93c0-1.73 1.43-3.14 3.16-3.14l.43.03C9.56 8.81 10.69 8 12 8s2.44.81 2.91 1.96l.43-.03c1.73 0 3.16 1.41 3.16 3.14m-11 0c0 .43.27.83.67 1.03l.88.4c.12-.72.51-1.36 1.06-1.81l-.81-.56c-.18-.13-.4-.2-.64-.2c-.63 0-1.16.51-1.16 1.14m2.62 4.24c-.56-.45-.95-1.09-1.07-1.81l-.88.4c-.4.2-.67.6-.67 1.02c0 .63.53 1.14 1.16 1.14c.23 0 .45-.06.65-.2zm3.02 1.59l-.11-1.09c-.32.12-.67.19-1.03.19s-.7-.07-1-.19l-.14 1.09c.02.6.52 1.1 1.14 1.1s1.12-.5 1.14-1.1m0-7.8c-.02-.6-.52-1.1-1.14-1.1s-1.12.5-1.14 1.1l.14 1.09c.3-.12.64-.19 1-.19s.71.07 1.03.19zm3.36 5.82c0-.42-.27-.84-.67-1.03l-.88-.42c-.12.74-.51 1.38-1.06 1.83l.81.57c.18.13.4.2.64.2c.63 0 1.16-.51 1.16-1.15m0-3.85c0-.63-.53-1.14-1.16-1.14c-.23 0-.45.07-.65.2l-.82.56c.56.45.95 1.09 1.07 1.81l.88-.4c.41-.2.68-.6.68-1.03"/></svg>
    <text x="112" y="58" font-family="Arial" font-size="20" font-weight="700" fill="#0F172A">Frjókornaofnæmi</text>
    <text x="112" y="84" font-family="Arial" font-size="13" fill="#64748B">Greining og meðferð</text>
  </g><g transform="translate(428,24)">
    <rect width="380" height="150" rx="14" fill="#fff" stroke="#E6EAF2"/>
    <rect x="26" y="34" width="64" height="64" rx="16" fill="#EFF4FF"/>
    <svg x="40" y="48" width="36" height="36"><g fill="#2563EB" fill-rule="evenodd" clip-rule="evenodd"><path d="M24 14.182C15.2 10.255 7 18.545 4 24c3 4.364 11.2 12 20 12s17-7.636 20-12c-3-5.455-11-14.182-20-9.818m17.604 9.694c-1.464-2.32-3.734-4.995-6.458-6.8c-3.11-2.059-6.598-2.877-10.274-1.095a2 2 0 0 1-1.687.027c-3.593-1.603-7.119-.782-10.28 1.248C10.158 19.02 7.86 21.608 6.4 23.88c1.471 1.86 3.772 4.166 6.569 6.114C16.31 32.322 20.162 34 24 34s7.69-1.678 11.032-4.005c2.8-1.95 5.102-4.258 6.572-6.12"/><path d="M12.555 23.958C15.683 24.992 19.745 26 24 26c4.196 0 8.204-1.037 11.334-2.077C32.155 22.912 28.066 22 24 22c-4.114 0-8.252.934-11.445 1.958m-3.521-.86C12.448 21.73 18.202 20 24 20c5.7 0 11.36 1.672 14.793 3.03c.828.327.777 1.493-.057 1.806C35.414 26.079 29.919 28 24 28c-6.04 0-11.636-1.894-14.935-3.174c-.804-.312-.832-1.406-.031-1.727"/></g></svg>
    <text x="112" y="58" font-family="Arial" font-size="20" font-weight="700" fill="#0F172A">Frunsa</text>
    <text x="112" y="84" font-family="Arial" font-size="13" fill="#64748B">Greining og meðferð</text>
  </g><g transform="translate(832,24)">
    <rect width="380" height="150" rx="14" fill="#fff" stroke="#E6EAF2"/>
    <rect x="26" y="34" width="64" height="64" rx="16" fill="#EFF4FF"/>
    <svg x="40" y="48" width="36" height="36"><g fill="#2563EB"><path fill-rule="evenodd" d="M29.656 8.442L8.443 29.656a2 2 0 0 0 0 2.828l7.07 7.071a2 2 0 0 0 2.83 0l21.212-21.213a2 2 0 0 0 0-2.828l-7.07-7.072a2 2 0 0 0-2.83 0m-22.628 19.8a4 4 0 0 0 0 5.656L14.1 40.97a4 4 0 0 0 5.656 0L40.97 19.756a4 4 0 0 0 0-5.657l-7.071-7.07a4 4 0 0 0-5.657 0z" clip-rule="evenodd"/><path d="M16.928 24.706a1.25 1.25 0 1 1-1.768 1.768a1.25 1.25 0 0 1 1.768-1.768m2.475-2.475A1.25 1.25 0 1 1 17.635 24a1.25 1.25 0 0 1 1.768-1.768m2.475-2.476a1.25 1.25 0 1 1-1.768 1.768a1.25 1.25 0 0 1 1.768-1.768m2.475-2.475a1.25 1.25 0 1 1-1.769 1.768a1.25 1.25 0 0 1 1.769-1.768m2.474-2.475a1.25 1.25 0 1 1-1.767 1.768a1.25 1.25 0 0 1 1.767-1.768m2.475-2.474a1.25 1.25 0 1 1-1.767 1.767a1.25 1.25 0 0 1 1.767-1.767m3.182 3.182a1.25 1.25 0 1 1-1.768 1.767a1.25 1.25 0 0 1 1.768-1.767M14.453 27.18a1.25 1.25 0 1 1-1.768 1.769a1.25 1.25 0 0 1 1.768-1.768m-2.828 2.829l-.53 2.297l-1.768-1.767zm11.667 1.06a1.25 1.25 0 1 1-1.768 1.768a1.25 1.25 0 0 1 1.768-1.768m2.475-2.475a1.25 1.25 0 1 1-1.768 1.768a1.25 1.25 0 0 1 1.768-1.768m2.475-2.475a1.25 1.25 0 1 1-1.768 1.768a1.25 1.25 0 0 1 1.768-1.768m2.475-2.475a1.25 1.25 0 1 1-1.768 1.768a1.25 1.25 0 0 1 1.767-1.768m2.475-2.475a1.25 1.25 0 1 1-1.767 1.768a1.25 1.25 0 0 1 1.767-1.768m2.475-2.474a1.25 1.25 0 1 1-1.768 1.767a1.25 1.25 0 0 1 1.768-1.768m-3.889-8.838a1.25 1.25 0 1 1-1.768 1.768a1.25 1.25 0 0 1 1.768-1.768m6.364 6.363a1.25 1.25 0 1 1-1.767 1.768a1.25 1.25 0 0 1 1.767-1.767m-3.181-3.182a1.25 1.25 0 1 1-1.769 1.767a1.25 1.25 0 0 1 1.768-1.767M20.817 33.545a1.25 1.25 0 1 1-1.767 1.767a1.25 1.25 0 0 1 1.767-1.767m-2.475 2.475a1.25 1.25 0 1 1-1.768 1.767a1.25 1.25 0 0 1 1.768-1.767m-3.182-3.182a1.25 1.25 0 1 1-1.768 1.767a1.25 1.25 0 0 1 1.768-1.767m2.475-2.475a1.25 1.25 0 1 1-1.768 1.768a1.25 1.25 0 0 1 1.768-1.768"/></g></svg>
    <text x="112" y="58" font-family="Arial" font-size="20" font-weight="700" fill="#0F172A">Getnaðarvörn</text>
    <text x="112" y="84" font-family="Arial" font-size="13" fill="#64748B">Greining og meðferð</text>
  </g><g transform="translate(24,198)">
    <rect width="380" height="150" rx="14" fill="#fff" stroke="#E6EAF2"/>
    <rect x="26" y="34" width="64" height="64" rx="16" fill="#EFF4FF"/>
    <svg x="40" y="48" width="36" height="36"><g fill="#2563EB" fill-rule="evenodd" clip-rule="evenodd"><path d="m40.272 31.501l.088.016l.013-.029zM24 40c1.882 0 3.688-.325 5.365-.922l2.094 1.309A17.9 17.9 0 0 1 24 42c-9.941 0-18-8.059-18-18S14.059 6 24 6s18 8.059 18 18q0 .624-.042 1.237l-2.027.259Q40 24.756 40 24c0-8.837-7.163-16-16-16S8 15.163 8 24s7.163 16 16 16"/><path d="M17.241 18.349a1 1 0 0 1 1.314-.181l3 2a1 1 0 0 1 0 1.664l-3 2a1 1 0 0 1-1.267-1.534c.325-.33.757-.659 1.087-.91q.17-.13.292-.226q.1-.08.173-.144a6 6 0 0 0-.201-.167l-.236-.184c-.342-.265-.8-.618-1.141-.992a1 1 0 0 1-.02-1.326m17.517 0a1 1 0 0 0-1.314-.181l-3 2a1 1 0 0 0 0 1.664l3 2a1 1 0 0 0 1.267-1.534c-.325-.33-.757-.659-1.088-.91l-.291-.226a5 5 0 0 1-.173-.144q.083-.072.201-.167l.236-.184c.342-.265.8-.618 1.141-.992a1 1 0 0 0 .02-1.326M26 35a4 4 0 1 0 0-8a4 4 0 0 0 0 8m0 2a6 6 0 1 0 0-12a6 6 0 0 0 0 12m15.99-6.475a.94.94 0 0 1-1.01.935l-1.55-.115a1.066 1.066 0 0 1-.969-1.08a.94.94 0 0 1 1.01-.935l1.55.114c.546.04.98.524.968 1.08m-4.745-.349a.94.94 0 0 1-1.01.935l-1.147-.085a1.066 1.066 0 0 1-.969-1.08a.94.94 0 0 1 1.01-.935l1.148.084c.546.04.98.524.968 1.08m-1.674 7.908c.388-.372 1.015-.337 1.4.079l1.859 2.009c.385.416.382 1.054-.006 1.426c-.388.373-1.014.337-1.399-.078l-1.86-2.01c-.385-.415-.382-1.054.006-1.426m-3.127-3.378c.388-.372 1.014-.337 1.4.079l.892.965c.385.416.383 1.054-.005 1.427c-.388.372-1.015.337-1.4-.08l-.893-.964c-.385-.416-.382-1.055.006-1.427m7.37.666c.197-.508.77-.736 1.28-.508l.173.077c.51.228.763.826.565 1.335c-.197.51-.77.737-1.28.51l-.173-.078c-.51-.228-.763-.826-.566-1.335m-6.134-2.745c.197-.51.77-.738 1.28-.51l3.272 1.464c.51.228.762.826.565 1.335a.94.94 0 0 1-1.28.51l-3.272-1.464c-.51-.228-.763-.826-.565-1.335"/></g></svg>
    <text x="112" y="58" font-family="Arial" font-size="20" font-weight="700" fill="#0F172A">Kvef, hósti eða hálsbólga</text>
    <text x="112" y="84" font-family="Arial" font-size="13" fill="#64748B">Greining og meðferð</text>
  </g><g transform="translate(428,198)">
    <rect width="380" height="150" rx="14" fill="#fff" stroke="#E6EAF2"/>
    <rect x="26" y="34" width="64" height="64" rx="16" fill="#EFF4FF"/>
    <svg x="40" y="48" width="36" height="36"><path fill="#2563EB" fill-rule="evenodd" d="M10 4a1 1 0 0 0-1 1v38a1 1 0 0 0 1 1h28a1 1 0 0 0 1-1V15a1 1 0 0 0-.293-.707l-10-10A1 1 0 0 0 28 4zm1 38V6h16v9a1 1 0 0 0 1 1h9v26zm24.586-28L29 7.414V14zM17 33h2v-7h1.586l5 5l-3.293 3.293l1.414 1.414L27 32.414l3.293 3.293l1.414-1.414L28.414 31l3.293-3.293l-1.414-1.414L27 29.586l-3.605-3.605A4 4 0 0 0 23 18h-5a1 1 0 0 0-1 1zm6-9h-4v-4h4a2 2 0 1 1 0 4" clip-rule="evenodd"/></svg>
    <text x="112" y="58" font-family="Arial" font-size="20" font-weight="700" fill="#0F172A">Lyfjuendurnýjun</text>
    <text x="112" y="84" font-family="Arial" font-size="13" fill="#64748B">Greining og meðferð</text>
  </g><g transform="translate(832,198)">
    <rect width="380" height="150" rx="14" fill="#fff" stroke="#E6EAF2"/>
    <rect x="26" y="34" width="64" height="64" rx="16" fill="#EFF4FF"/>
    <svg x="40" y="48" width="36" height="36"><g fill="#2563EB" fill-rule="evenodd" clip-rule="evenodd"><path d="M24 4a1 1 0 0 1 1 1v3.455c0 .34-.058.679-.173.999s-.287.62-.511.878a2.5 2.5 0 0 1-.811.62a2.3 2.3 0 0 1-1.005.23h-2.26c-1.231-.025-2.453.474-3.425 1.446c-.974.974-1.623 2.352-1.79 3.88c-.07.837.012 1.68.24 2.474a6.2 6.2 0 0 0 1.076 2.13a5.1 5.1 0 0 0 1.683 1.404c.226.116.732.247 1.384.345c.62.094 1.235.139 1.593.139a1 1 0 1 1 0 2c-.479 0-1.196-.056-1.892-.161c-.663-.1-1.454-.266-1.994-.541a7.1 7.1 0 0 1-2.345-1.95a8.2 8.2 0 0 1-1.427-2.815a8.9 8.9 0 0 1-.31-3.206l.003-.021c.21-1.95 1.04-3.767 2.364-5.092c1.326-1.325 3.058-2.065 4.87-2.032h2.23q.067.001.144-.034a.5.5 0 0 0 .162-.128a.8.8 0 0 0 .139-.243A1 1 0 0 0 23 8.455V5a1 1 0 0 1 1-1"/><path d="M14.114 23.702A6.34 6.34 0 0 1 17 23a1 1 0 1 1 0 2c-.675 0-1.348.163-1.976.484a5.1 5.1 0 0 0-1.684 1.404a6.2 6.2 0 0 0-1.076 2.13a6.9 6.9 0 0 0-.24 2.473c.167 1.529.816 2.907 1.79 3.88c.409.41 1.139.791 2.024 1.065c.87.269 1.763.395 2.4.382H22.5c.35 0 .692.08 1.005.23c.312.148.586.362.81.62c.225.259.397.558.512.878s.173.66.173 1V43a1 1 0 1 1-2 0v-3.455a1 1 0 0 0-.055-.322a.8.8 0 0 0-.14-.243a.5.5 0 0 0-.161-.128a.3.3 0 0 0-.144-.034h-4.232c-.884.016-1.987-.152-3.02-.471c-1.023-.316-2.108-.82-2.849-1.561c-1.324-1.325-2.155-3.142-2.364-5.092l-.002-.021a8.9 8.9 0 0 1 .309-3.206a8.2 8.2 0 0 1 1.427-2.816a7.1 7.1 0 0 1 2.345-1.949M31.003 4a1 1 0 0 1 1 1v5.182c0 1.02-.174 2.034-.516 2.983A8 8 0 0 1 30 15.724q-.263.302-.59.613c1.66.096 3.452.387 4.97 1.172c1.031.533 1.953 1.303 2.61 2.398C37.646 21 38 22.354 38 24c0 1.64-.343 2.992-.982 4.084c-.64 1.095-1.54 1.867-2.555 2.403c-1.537.813-3.363 1.098-5.044 1.185q.306.292.578.606c1.294 1.49 2.002 3.485 2.002 5.54V43a1 1 0 1 1-2 0v-5.182c0-1.608-.556-3.128-1.512-4.228c-1.01-1.165-2.284-1.883-3.487-1.884a1 1 0 0 1 0-2h2.997c1.978 0 4.013-.184 5.531-.987c.738-.39 1.34-.92 1.764-1.645c.425-.728.708-1.715.708-3.074c0-1.354-.29-2.338-.725-3.065c-.435-.724-1.054-1.257-1.814-1.65c-1.563-.808-3.647-.99-5.646-.99h-2.997a1 1 0 0 1 0-2h.003a4.3 4.3 0 0 0 1.864-.43c.569-.27 1.308-.88 1.805-1.453a6.1 6.1 0 0 0 1.116-1.924a6.8 6.8 0 0 0 .397-2.306V5a1 1 0 0 1 1-1"/><path d="M16 24a1 1 0 0 1 1-1h13a1 1 0 1 1 0 2H17a1 1 0 0 1-1-1m6-6.706a1 1 0 0 1 1-1h2a1 1 0 1 1 0 2h-2a1 1 0 0 1-1-1m-5 13.412a1 1 0 0 1 1-1h7a1 1 0 1 1 0 2h-7a1 1 0 0 1-1-1"/></g></svg>
    <text x="112" y="58" font-family="Arial" font-size="20" font-weight="700" fill="#0F172A">Njálgur</text>
    <text x="112" y="84" font-family="Arial" font-size="13" fill="#64748B">Greining og meðferð</text>
  </g><g transform="translate(24,372)">
    <rect width="380" height="150" rx="14" fill="#fff" stroke="#E6EAF2"/>
    <rect x="26" y="34" width="64" height="64" rx="16" fill="#EFF4FF"/>
    <svg x="40" y="48" width="36" height="36"><g fill="#2563EB"><path d="M20 25a2 2 0 1 1 0 4a2 2 0 0 1 0-4m5-6a2 2 0 1 0-4 0a2 2 0 0 0 4 0m4 5a2 2 0 1 1 0 4a2 2 0 0 1 0-4"/><path fill-rule="evenodd" d="M21 5a1 1 0 0 1 1-1h4a1 1 0 1 1 0 2h-1v3.033a14.94 14.94 0 0 1 8.876 3.677l2.145-2.145l-.707-.707a1 1 0 1 1 1.414-1.414l2.828 2.828a1 1 0 0 1-1.414 1.414l-.707-.707l-2.145 2.145A14.94 14.94 0 0 1 38.967 23H42v-1a1 1 0 0 1 2 0v4a1 1 0 1 1-2 0v-1h-3.033a14.94 14.94 0 0 1-3.677 8.876l2.145 2.145l.707-.707a1 1 0 1 1 1.414 1.414l-2.828 2.828a1 1 0 0 1-1.414-1.414l.707-.707l-2.145-2.145A14.94 14.94 0 0 1 25 38.967V42h1a1 1 0 1 1 0 2h-4a1 1 0 1 1 0-2h1v-3.033a14.94 14.94 0 0 1-8.876-3.677l-2.145 2.145l.707.707a1 1 0 1 1-1.414 1.414l-2.828-2.828a1 1 0 1 1 1.414-1.414l.707.707l2.145-2.145A14.94 14.94 0 0 1 9.033 25H6v1a1 1 0 1 1-2 0v-4a1 1 0 0 1 2 0v1h3.033a14.94 14.94 0 0 1 3.677-8.876l-2.145-2.145l-.707.707a1 1 0 0 1-1.414-1.414l2.828-2.828a1 1 0 1 1 1.414 1.414l-.707.707l2.145 2.145A14.94 14.94 0 0 1 23 9.033V6h-1a1 1 0 0 1-1-1m12.872 10.542A12.94 12.94 0 0 1 36.962 23H36a1 1 0 0 0 0 2h.962a12.94 12.94 0 0 1-3.09 7.458l-.68-.68a1 1 0 0 0-1.414 1.415l.68.68A12.94 12.94 0 0 1 25 36.963V36a1 1 0 1 0-2 0v.962a12.94 12.94 0 0 1-7.458-3.09l.68-.68a1 1 0 0 0-1.414-1.414l-.68.68A12.94 12.94 0 0 1 11.038 25H12a1 1 0 1 0 0-2h-.962a12.94 12.94 0 0 1 3.09-7.458l.68.68a1 1 0 0 0 1.414-1.414l-.68-.68A12.94 12.94 0 0 1 23 11.038V12a1 1 0 1 0 2 0v-.962a12.94 12.94 0 0 1 7.458 3.09l-.68.68a1 1 0 0 0 1.414 1.414z" clip-rule="evenodd"/></g></svg>
    <text x="112" y="58" font-family="Arial" font-size="20" font-weight="700" fill="#0F172A">Ristill</text>
    <text x="112" y="84" font-family="Arial" font-size="13" fill="#64748B">Greining og meðferð</text>
  </g><g transform="translate(428,372)">
    <rect width="380" height="150" rx="14" fill="#fff" stroke="#E6EAF2"/>
    <rect x="26" y="34" width="64" height="64" rx="16" fill="#EFF4FF"/>
    <svg x="40" y="48" width="36" height="36"><g fill="#2563EB" fill-rule="evenodd" clip-rule="evenodd"><path d="M17.546 15.48a7 7 0 1 0 4.372 5.454a1 1 0 1 1 1.977-.304a9 9 0 1 1-5.622-7.014a1 1 0 1 1-.727 1.863"/><path d="M14 39v-8a1 1 0 1 1 2 0v8a1 1 0 1 1-2 0"/><path d="M11 34a1 1 0 0 1 1-1h6a1 1 0 1 1 0 2h-6a1 1 0 0 1-1-1m17.902-18.737a7 7 0 0 0-8.853 7.562a1 1 0 1 1-1.986.236a9 9 0 1 1 5.375 7.204a1 1 0 0 1 .791-1.837a7 7 0 1 0 4.673-13.165"/><path d="M32.793 17.207a1 1 0 0 1 0-1.414l7.5-7.5a1 1 0 1 1 1.414 1.414l-7.5 7.5a1 1 0 0 1-1.414 0"/><path d="M40.924 15a1 1 0 0 1-.987-1.013l.05-3.974l-3.974.05a1 1 0 1 1-.026-2l6.026-.076l-.076 6.026a1 1 0 0 1-1.013.987"/></g></svg>
    <text x="112" y="58" font-family="Arial" font-size="20" font-weight="700" fill="#0F172A">Risvandamál</text>
    <text x="112" y="84" font-family="Arial" font-size="13" fill="#64748B">Greining og meðferð</text>
  </g><g transform="translate(832,372)">
    <rect width="380" height="150" rx="14" fill="#fff" stroke="#E6EAF2"/>
    <rect x="26" y="34" width="64" height="64" rx="16" fill="#EFF4FF"/>
    <svg x="40" y="48" width="36" height="36"><path fill="#2563EB" fill-rule="evenodd" d="M8.322 6.056a2.89 2.89 0 0 1 3.4 2.254c.016.06.052.177.116.344c.128.333.365.861.78 1.506c.64.997 1.726 2.308 3.543 3.619c1.95-.496 4.455-1.003 6.744-1.135a18 18 0 0 1 2.19 0c2.289.132 4.794.64 6.744 1.135c1.817-1.311 2.903-2.622 3.544-3.619a8.3 8.3 0 0 0 .779-1.506a4 4 0 0 0 .126-.38a2.889 2.889 0 0 1 5.656 1.181l-.002.01c-.026.123-.053.24-.105.423a10 10 0 0 1-.278.83c-.257.67-.668 1.558-1.316 2.566c-.907 1.411-2.26 3.03-4.255 4.6c.199.955.345 2.077.345 3.283c0 1.895-.527 3.322-1.365 4.508c-.797 1.126-1.862 2.008-2.858 2.832l-.05.04c-1.308 1.083-2.566 2.133-3.527 3.695c-.947 1.54-1.644 3.648-1.644 6.87a2.889 2.889 0 1 1-5.778 0c0-3.222-.697-5.33-1.644-6.87c-.961-1.561-2.22-2.612-3.528-3.695l-.049-.04c-.996-.824-2.06-1.706-2.858-2.832c-.838-1.186-1.365-2.613-1.365-4.508c0-1.206.146-2.328.345-3.282c-1.995-1.572-3.348-3.19-4.254-4.6a14 14 0 0 1-1.317-2.568a10 10 0 0 1-.349-1.1L6.09 9.61l-.032-.144l-.002-.01a2.89 2.89 0 0 1 2.266-3.4m.393 1.961a.89.89 0 0 1 1.044.688l.002.012l.004.016v.002l.026.098l.007.023c.032.113.086.287.172.512c.172.45.47 1.103.965 1.874c.82 1.276 2.194 2.892 4.465 4.446l.378.259l.443-.117c1.947-.515 4.522-1.059 6.8-1.19h.003a16 16 0 0 1 1.952 0h.003c2.278.131 4.854.675 6.8 1.19l.443.117l.378-.259c2.27-1.554 3.644-3.17 4.465-4.446c.495-.77.793-1.424.965-1.874a6 6 0 0 0 .205-.633v-.002l.004-.016l.003-.012a.889.889 0 0 1 1.742.354a4 4 0 0 1-.071.283c-.046.16-.117.384-.222.661a12 12 0 0 1-1.13 2.2c-.86 1.337-2.205 2.93-4.286 4.475l-.537.398l.162.648c.238.95.433 2.147.433 3.443c0 .705-.09 1.307-.25 1.836L34 23H14l-.083.003a6.3 6.3 0 0 1-.25-1.836c0-1.296.195-2.492.433-3.443l.162-.648l-.536-.398c-2.081-1.544-3.427-3.139-4.286-4.475a12 12 0 0 1-1.13-2.2a8 8 0 0 1-.223-.661l-.003-.013l-.045-.171l-.023-.104a.89.89 0 0 1 .699-1.037M15.04 25c.583.684 1.318 1.298 2.175 2.007l.036.03c1.282 1.06 2.773 2.295 3.919 4.157c1.17 1.901 1.941 4.385 1.941 7.917a.889.889 0 1 0 1.778 0c0-3.532.77-6.016 1.941-7.917c1.146-1.862 2.637-3.096 3.919-4.157l.037-.03c.856-.71 1.591-1.323 2.175-2.007z" clip-rule="evenodd"/></svg>
    <text x="112" y="58" font-family="Arial" font-size="20" font-weight="700" fill="#0F172A">Þvagfæra- og leggangasýkingar</text>
    <text x="112" y="84" font-family="Arial" font-size="13" fill="#64748B">Greining og meðferð</text>
  </g></svg>