<svg xmlns="http://www.w3.org/2000/svg" viewBox="0 0 48 48" width="48" height="48"><g fill="#2563EB"><path  d="M4 27a1 1 0 0 1 1-1h11.523a13 13 0 0 1 3.153.388l1.863.466a13 13 0 0 1 6.586-5.194L32 20.293v-1.39a5 5 0 0 1 1.096-3.123l3.123-3.905a1 1 0 0 1 1.417-.146l.367.302c.22.182.409.39.564.615l.43-.593a3 3 0 0 1 4.227-.635l.376.282a1 1 0 0 1 .39.942l-1 7a1 1 0 0 1-.476.716l-4.819 2.891l-3.83 5.426a13 13 0 0 1-5.792 4.573l-1.511.604l-.683.684A5 5 0 0 1 22.343 36h-1.18l-4 1.333a13 13 0 0 1-4.11.667H5a1 1 0 0 1-1-1v-1h9.053c1.182 0 2.356-.19 3.478-.564l4.153-1.385a1 1 0 0 1 .316-.05h1.343a3 3 0 0 0 2.122-.88l.828-.828q.145-.145.336-.221l1.701-.681a11 11 0 0 0 4.902-3.87l3.951-5.598a1 1 0 0 1 .303-.28l4.591-2.756l.848-5.934a1 1 0 0 0-1.31.277l-2.806 3.858a1 1 0 1 1-1.618-1.176l.712-.978a1 1 0 0 0 .144-.892l-2.39 2.987A3 3 0 0 0 34 18.903V21a1 1 0 0 1-.667.943l-4.542 1.603a11 11 0 0 0-5.667 4.543l-.276.441a1 1 0 0 1-1.09.44l-2.567-.642A11 11 0 0 0 16.523 28H4z"/></g><circle cx="10.494" cy="28.13" r="1.3569999999999998" fill="#2563EB"/><circle cx="12.736" cy="27.421999999999997" r="1.3569999999999998" fill="#2563EB"/><circle cx="14.742" cy="28.601999999999997" r="1.3569999999999998" fill="#2563EB"/><circle cx="10.14" cy="30.372" r="1.3569999999999998" fill="#2563EB"/><circle cx="12.5" cy="29.782" r="1.3569999999999998" fill="#2563EB"/><circle cx="14.506" cy="30.607999999999997" r="1.3569999999999998" fill="#2563EB"/><circle cx="11.438" cy="31.906" r="1.3569999999999998" fill="#2563EB"/><circle cx="13.68" cy="31.787999999999997" r="1.3569999999999998" fill="#2563EB"/></svg>