<svg xmlns="http://www.w3.org/2000/svg" viewBox="0 0 1920 660" fill="none">
  <g id="mark" fill="#00d6ff" fill-rule="evenodd">
    <path d="M 292 132.563 C 270.902 138.054, 252.410 155.483, 244.852 177 C 241.554 186.389, 241.485 207.296, 244.718 217.500 C 248.198 228.484, 253.469 236.394, 265.356 248.471 C 292.193 275.735, 298.160 292.498, 285.970 306.382 C 279.565 313.676, 269.451 316.582, 261.031 313.546 C 252.433 310.445, 241.736 302.699, 228.600 290.060 C 214.075 276.085, 207.366 271.490, 195.490 267.386 C 188.425 264.944, 186.053 264.625, 175 264.625 C 163.947 264.625, 161.575 264.944, 154.510 267.386 C 133.735 274.565, 117.977 290.249, 111.322 310.369 C 108.981 317.450, 108.633 320.115, 108.633 331 C 108.633 341.915, 108.978 344.542, 111.349 351.715 C 118.088 372.098, 135.975 389.226, 157 395.427 C 165.917 398.057, 178.309 398.524, 187.858 396.589 C 203.662 393.387, 210.922 389.002, 228.500 372.042 C 250.161 351.142, 263.172 344.571, 275.067 348.522 C 285.319 351.927, 292 360.899, 292 371.262 C 292 381.700, 282.691 396.347, 264.516 414.507 C 253.481 425.533, 248.186 433.555, 244.718 444.500 C 242.876 450.314, 242.504 453.788, 242.522 465 C 242.541 477.075, 242.824 479.274, 245.201 485.835 C 249.075 496.525, 253.541 503.483, 262 512.003 C 270.665 520.731, 281.596 527.002, 292.624 529.573 C 302.566 531.891, 321.229 531.160, 330 528.109 C 345.510 522.715, 360.110 510.049, 367.753 495.358 C 373.093 485.094, 374.967 477.089, 374.985 464.460 C 375.003 452.353, 373.353 445.303, 367.886 434.137 C 364.419 427.056, 361.844 423.761, 351.084 412.637 C 344.095 405.412, 336.554 396.800, 334.324 393.500 C 313.250 362.301, 309.361 322.819, 323.918 287.851 C 329.463 274.532, 336.277 264.835, 350.568 249.929 C 362.518 237.465, 364.475 234.918, 368.411 226.715 C 373.710 215.670, 375 209.949, 375 197.500 C 375 184.994, 373.711 179.336, 368.280 168 C 364.500 160.109, 362.355 157.126, 355.615 150.385 C 348.874 143.645, 345.891 141.500, 338 137.720 C 332.775 135.216, 326.115 132.681, 323.201 132.084 C 315.845 130.579, 298.606 130.844, 292 132.563 M 429.015 265.467 C 410.049 269.069, 391.545 283.008, 383.124 300.034 C 375.937 314.567, 375.791 315.549, 375.271 353.049 C 374.751 390.519, 374.981 392.189, 381.190 395.974 C 384.326 397.887, 386.168 397.993, 416.292 397.996 C 452.897 398.001, 458.459 397.282, 472 390.798 C 483.951 385.075, 495.915 373.139, 501.868 361 C 511.405 341.551, 511.404 320.441, 501.865 301 C 496.739 290.552, 485.079 278.292, 475 272.751 C 461.383 265.264, 444.315 262.560, 429.015 265.467"/>
  </g>
  <g id="wordmark" fill="#ffffff" fill-rule="evenodd">
    <path d="M 738.418 260.969 C 735.265 262.245, 731.158 267.643, 730.443 271.451 C 729.485 276.560, 730.809 280.742, 734.578 284.511 C 740.472 290.405, 749.558 290.202, 755.457 284.044 C 757.699 281.704, 758.430 279.865, 758.776 275.686 C 759.313 269.212, 757.361 264.800, 752.701 261.960 C 749.351 259.917, 742.238 259.424, 738.418 260.969 M 1396.299 261.960 C 1392.130 264.501, 1390 268.769, 1390 274.582 C 1390 281.030, 1392.875 285.405, 1398.531 287.565 C 1409.074 291.591, 1418.328 285.202, 1418.368 273.868 C 1418.387 268.483, 1416.306 264.767, 1411.696 261.956 C 1407.508 259.402, 1400.490 259.404, 1396.299 261.960 M 966.460 264.250 C 966.197 264.938, 966.098 295.200, 966.241 331.500 L 966.500 397.500 979.250 397.780 L 992 398.060 992 330.530 L 992 263 979.469 263 C 970.365 263, 966.807 263.342, 966.460 264.250 M 1191 330.500 L 1191 398.060 1203.750 397.780 L 1216.500 397.500 1217 386.419 L 1217.500 375.338 1223.013 369.101 L 1228.527 362.863 1241.464 380.431 L 1254.401 398 1267.700 398 C 1278.874 398, 1281 397.760, 1281 396.495 C 1281 395.668, 1273.418 384.530, 1264.151 371.745 C 1254.884 358.960, 1246.722 347.561, 1246.013 346.414 C 1244.823 344.488, 1245.967 342.912, 1260.876 325.956 C 1269.759 315.851, 1276.872 307.115, 1276.682 306.542 C 1276.471 305.906, 1271.019 305.392, 1262.685 305.222 L 1249.034 304.944 1233.267 323.443 L 1217.500 341.943 1217 302.721 L 1216.500 263.500 1203.750 263.220 L 1191 262.940 1191 330.500 M 643.667 265.667 C 643.300 266.033, 643 295.971, 643 332.196 L 643 398.058 656.250 397.779 L 669.500 397.500 669.766 369.770 L 670.032 342.040 691.266 341.770 L 712.500 341.500 712.793 332 C 713.269 316.573, 715.493 318, 690.981 318 L 670 318 670 304 L 670 290 690.918 290 C 702.423 290, 712.548 289.727, 713.418 289.393 C 715.768 288.491, 715.768 266.509, 713.418 265.607 C 711.254 264.777, 644.500 264.834, 643.667 265.667 M 804.892 304.449 C 792.840 307.773, 783.185 316.160, 777.471 328.270 C 767.969 348.406, 771.773 373.812, 786.488 388.504 C 801.862 403.852, 828.319 404.734, 842.676 390.376 L 846.905 386.148 847.202 391.824 L 847.500 397.500 859.500 397.500 L 871.500 397.500 871.760 352.615 C 871.948 320.307, 871.703 307.347, 870.888 306.365 C 869.394 304.565, 849.976 304.424, 848.200 306.200 C 847.540 306.860, 847 309.605, 847 312.300 L 847 317.201 841.445 312.123 C 837.268 308.306, 834.264 306.544, 829.339 305.023 C 821.900 302.725, 811.988 302.493, 804.892 304.449 M 930.007 304.593 C 925.440 306.573, 922.303 309.575, 919.653 314.500 L 917.500 318.500 917.190 313.030 C 917.020 310.022, 916.402 306.984, 915.818 306.280 C 914.272 304.417, 893.667 304.491, 892.112 306.365 C 891.297 307.347, 891.052 320.307, 891.240 352.615 L 891.500 397.500 904.250 397.780 L 917 398.060 917.006 374.280 C 917.012 347.704, 917.830 340.366, 921.385 334.995 C 925.113 329.361, 929.891 327.462, 939.750 327.694 L 948 327.888 947.985 317.694 C 947.976 312.087, 947.630 306.966, 947.214 306.313 C 945.101 302.989, 935.840 302.063, 930.007 304.593 M 1041.919 304.833 C 1020.795 310.348, 1007 328.981, 1007 352 C 1007 371.507, 1016.497 387.248, 1033.186 395.401 C 1051.870 404.528, 1075.321 401.229, 1089.463 387.484 L 1094.072 383.005 1097.592 386.526 C 1111.127 400.060, 1135.302 404.471, 1155.181 397.033 C 1161.139 394.804, 1169 388.734, 1169 386.362 C 1169 384.544, 1161.857 374.091, 1160.578 374.038 C 1160.072 374.017, 1156.697 375.221, 1153.078 376.713 C 1147.542 378.996, 1144.995 379.431, 1137 379.463 C 1128.521 379.496, 1126.872 379.191, 1121.650 376.628 C 1117.279 374.481, 1115.068 372.599, 1112.900 369.182 C 1111.305 366.667, 1110 364.022, 1110 363.304 C 1110 362.262, 1115.812 362, 1138.935 362 C 1154.939 362, 1168.995 361.572, 1170.387 361.043 C 1174.851 359.346, 1176.315 354.811, 1175.769 344.373 C 1175.352 336.400, 1174.791 334.093, 1171.677 327.536 C 1169.389 322.717, 1166.295 318.211, 1163.221 315.219 C 1146.405 298.849, 1116.390 298.958, 1098.310 315.455 L 1093.500 319.844 1090 316.485 C 1077.932 304.901, 1059.122 300.342, 1041.919 304.833 M 1332.500 304.715 C 1329.183 305.858, 1325.573 308.308, 1321.777 311.992 L 1316.054 317.545 1315.464 313.023 C 1315.139 310.535, 1314.783 307.825, 1314.673 307 C 1314.507 305.761, 1312.385 305.500, 1302.486 305.500 L 1290.500 305.500 1290.240 351.780 L 1289.980 398.060 1302.740 397.780 L 1315.500 397.500 1316 368.500 C 1316.532 337.639, 1316.752 336.249, 1321.831 331.653 C 1324.388 329.339, 1330.557 327.101, 1334.538 327.044 C 1339.132 326.978, 1346.159 330.988, 1348.477 335 C 1350.347 338.236, 1350.538 340.727, 1351 368 L 1351.500 397.500 1364.500 397.500 L 1377.500 397.500 1377.790 370 C 1377.951 354.782, 1377.616 338.967, 1377.040 334.589 C 1375.199 320.591, 1368.963 311.026, 1358.458 306.083 C 1351.765 302.934, 1339.539 302.290, 1332.500 304.715 M 1474.293 304.384 C 1469.141 306.073, 1462.641 310.743, 1459.486 315.020 L 1457.130 318.212 1456.579 314.856 C 1456.276 313.010, 1455.909 310.150, 1455.764 308.500 L 1455.500 305.500 1443.500 305.500 L 1431.500 305.500 1431.240 351.780 L 1430.980 398.060 1443.740 397.780 L 1456.500 397.500 1457 368.500 C 1457.529 337.790, 1457.771 336.232, 1462.684 331.786 C 1465.448 329.284, 1471.449 327, 1475.256 327 C 1480.148 327, 1487.120 330.922, 1489.477 335 C 1491.347 338.236, 1491.538 340.727, 1492 368 L 1492.500 397.500 1505.250 397.780 L 1518 398.060 1518 365.119 C 1518 335.536, 1517.806 331.554, 1516.095 326.058 C 1511.694 311.917, 1501.472 304.073, 1486.539 303.378 C 1481.427 303.140, 1476.968 303.506, 1474.293 304.384 M 1560.251 304.482 C 1540.145 310.139, 1528.936 326.042, 1528.880 348.994 C 1528.852 360.579, 1530.126 366.580, 1534.258 374.333 C 1538.480 382.255, 1544.643 388.207, 1552.761 392.203 C 1559.255 395.400, 1559.837 395.500, 1571.979 395.500 C 1583.657 395.500, 1584.845 395.318, 1589.628 392.795 C 1592.449 391.307, 1596.161 388.685, 1597.878 386.968 L 1601 383.846 1600.978 391.173 C 1600.952 399.939, 1598.912 405.114, 1593.671 409.716 C 1589.495 413.383, 1581.709 416.007, 1575.068 415.985 C 1569.185 415.966, 1559.023 413.563, 1554.008 411.004 C 1547.712 407.792, 1546.601 408.233, 1542.496 415.573 C 1537.754 424.052, 1538.158 425.740, 1545.918 429.875 C 1563.133 439.051, 1588.952 439.473, 1605.144 430.843 C 1612.407 426.971, 1619.318 419.690, 1622.820 412.218 L 1625.500 406.500 1625.500 356 L 1625.500 305.500 1614 305.500 L 1602.500 305.500 1602.211 309 C 1601.692 315.300, 1601.285 315.490, 1596.863 311.495 C 1590.544 305.786, 1584.961 303.752, 1574.513 303.351 C 1568.610 303.124, 1563.688 303.515, 1560.251 304.482 M 1669.500 304.322 C 1643.891 310.876, 1630.137 340.400, 1639.104 369.572 C 1641.458 377.231, 1647.493 386.639, 1652.696 390.760 C 1669.175 403.811, 1692.723 403.932, 1705.965 391.034 L 1710.907 386.221 1711.203 391.860 L 1711.500 397.500 1723.500 397.500 L 1735.500 397.500 1735.760 352.615 C 1735.948 320.307, 1735.703 307.347, 1734.888 306.365 C 1733.394 304.565, 1713.976 304.424, 1712.200 306.200 C 1711.540 306.860, 1711 309.622, 1711 312.337 L 1711 317.274 1706.009 312.605 C 1703.264 310.037, 1698.876 307.002, 1696.259 305.860 C 1690.328 303.271, 1676.674 302.487, 1669.500 304.322 M 1792.962 305.250 C 1789.915 306.787, 1787.390 309.192, 1785 312.837 L 1781.500 318.174 1781.190 312.867 C 1781.020 309.949, 1780.402 306.984, 1779.818 306.280 C 1778.272 304.417, 1757.667 304.491, 1756.112 306.365 C 1755.297 307.347, 1755.052 320.307, 1755.240 352.615 L 1755.500 397.500 1768.250 397.780 C 1775.263 397.934, 1781.089 397.934, 1781.198 397.780 C 1781.307 397.626, 1781.645 384.416, 1781.948 368.424 L 1782.500 339.347 1785.161 335.330 C 1789.114 329.362, 1793.746 327.459, 1803.750 327.694 L 1812 327.888 1811.985 317.694 C 1811.976 312.087, 1811.639 307.005, 1811.235 306.400 C 1808.607 302.465, 1799.608 301.898, 1792.962 305.250 M 732.667 305.667 C 732.300 306.033, 731.997 327.746, 731.994 353.917 C 731.991 382.555, 731.591 402.933, 730.989 405.100 C 729.287 411.227, 726.939 412.524, 717.885 412.338 L 710 412.175 710 422.065 C 710 431.714, 710.066 431.997, 712.709 433.727 C 714.907 435.165, 717.596 435.500, 726.959 435.500 C 737.520 435.499, 738.925 435.274, 743.500 432.849 C 749.711 429.556, 752.265 426.858, 755.201 420.488 C 757.498 415.505, 757.500 415.450, 757.791 361.084 C 758.024 317.474, 757.825 306.506, 756.791 305.850 C 755.250 304.872, 733.625 304.708, 732.667 305.667 M 1391.696 305.637 C 1391.313 306.020, 1391 326.958, 1391 352.167 L 1391 398 1404.010 398 L 1417.020 398 1416.760 351.750 L 1416.500 305.500 1404.446 305.221 C 1397.816 305.067, 1392.079 305.255, 1391.696 305.637 M 1121.500 326.896 C 1119.300 327.914, 1116.286 330.042, 1114.803 331.624 C 1112.168 334.434, 1108.476 341.809, 1109.295 342.628 C 1109.521 342.855, 1119.406 342.918, 1131.261 342.770 L 1152.815 342.500 1151.459 338.558 C 1149.484 332.813, 1146.948 329.789, 1141.980 327.250 C 1136.378 324.388, 1127.258 324.230, 1121.500 326.896 M 813.129 328.703 C 796.749 334.491, 792.865 358.894, 806.427 370.802 C 809.685 373.662, 818.071 377, 822 377 C 825.872 377, 834.293 373.682, 837.446 370.913 C 847.882 361.751, 848.094 342.993, 837.872 333.293 C 831.598 327.338, 822.018 325.561, 813.129 328.703 M 1047.707 328.612 C 1031.418 333.619, 1026.716 357.913, 1039.658 370.197 C 1045.738 375.967, 1056.628 377.853, 1064.611 374.518 C 1084.357 366.270, 1083.159 334.579, 1062.873 328.555 C 1056.553 326.678, 1053.969 326.688, 1047.707 328.612 M 1566.129 329.623 C 1553.090 336.121, 1550.150 354.604, 1560.367 365.847 C 1564.435 370.324, 1569.929 372.438, 1577.578 372.470 C 1583.717 372.496, 1585.311 372.101, 1589.578 369.495 C 1601.055 362.488, 1603.672 344.529, 1594.704 334.316 C 1587.962 326.637, 1576.048 324.680, 1566.129 329.623 M 1677.301 328.584 C 1660.784 334.675, 1656.843 358.875, 1670.427 370.802 C 1673.685 373.662, 1682.071 377, 1686 377 C 1689.976 377, 1698.334 373.646, 1701.681 370.707 C 1714.003 359.888, 1711.155 336.820, 1696.566 329.276 C 1692.295 327.067, 1682.381 326.711, 1677.301 328.584"/>
  </g>
</svg>
