<svg preserveAspectRatio="none" width="100%" height="100%" overflow="visible" style="display: block;" viewBox="0 0 82.9991 9.50083" fill="none" xmlns="http://www.w3.org/2000/svg">
<g id="Group 2">
<g id="Vector">
<path d="M0 9.50059V0.0261345H2.57217V7.42806H6.40266V9.50059H0Z" fill="#ffffff"/>
<path d="M14.0451 0.0261345V9.50059H11.473V0.0261345H14.0451Z" fill="#ffffff"/>
<path d="M19.2947 9.50059V0.0261345H25.9564V2.09867H21.8669V3.72709H25.5493V5.79963H21.8669V9.50059H19.2947Z" fill="#ffffff"/>
<path d="M30.9331 9.50059V0.0261345H37.7613V2.09867H33.5052V3.72709H37.4098V5.79963H33.5052V7.42806H37.7428V9.50059H30.9331Z" fill="#ffffff"/>
</g>
<path id="Subtract" d="M57.4767 9.47461H54.9044V7.47559L57.4767 6.97949V9.47461ZM65.2989 9.47461H62.7267V5.9668L65.2989 5.4707V9.47461ZM70.9239 9.47461H68.7774L65.9386 5.34766L68.2393 4.90332L68.2774 4.95898H68.3517V4.88184L70.9239 4.38574V9.47461ZM78.7433 3.70117H82.6476V5.77344H78.7433V7.40234H82.9806V9.47461H76.171V3.37402L78.7433 2.87793V3.70117ZM49.8341 9.47461H44.5411L49.8341 8.45313V9.47461ZM46.004 7.3584L43.4317 7.85449V0H46.004V7.3584ZM57.4767 5.14648L54.9044 5.64258V0H57.4767V5.14648ZM67.1397 3.2832L62.7267 4.13379V0H64.9102L67.1397 3.2832ZM70.9239 2.55371L68.3517 3.0498V0H70.9239V2.55371ZM82.9991 2.07227H82.9249L82.9991 2.05762V2.07227ZM82.9991 0.225586L76.171 1.54199V0H82.9991V0.225586Z" fill="url(#paint0_linear_934_2700)"/>
</g>
<defs>
<linearGradient id="paint0_linear_934_2700" x1="63.216" y1="-4.96616e-10" x2="63.2097" y2="9.47461" gradientUnits="userSpaceOnUse">
<stop stop-color="#14D67B"/>
<stop offset="1" stop-color="#1FCBDE"/>
</linearGradient>
</defs>
</svg>
