<svg width="7293" height="1227" viewBox="0 0 7293 1227" fill="none" xmlns="http://www.w3.org/2000/svg">
<path d="M1631.26 1226.46C1576.79 1226.46 1536.95 1212.41 1511.72 1184.32C1486.49 1155.65 1473.88 1113.23 1473.88 1057.04V610.7H1603.74V1051.88C1603.74 1066.21 1606.03 1078.83 1610.62 1089.72C1615.21 1100.04 1621.8 1107.78 1630.4 1112.94C1639.57 1118.1 1651.04 1120.68 1664.8 1120.68C1670.53 1120.68 1676.55 1120.39 1682.86 1119.82C1689.17 1119.25 1695.19 1118.1 1700.92 1116.38L1699.2 1217C1688.31 1219.87 1677.13 1222.16 1665.66 1223.88C1654.77 1225.6 1643.3 1226.46 1631.26 1226.46Z" fill="black"/>
<path d="M1815.31 713.04V591.78H1955.49V713.04H1815.31ZM1820.47 1217V794.74H1950.33V1217H1820.47Z" fill="black"/>
<path d="M2143.46 1217V891.92H2063.48V794.74H2181.3L2143.46 829.14V802.48C2143.46 739.987 2160.09 693.26 2193.34 662.3C2226.6 630.767 2278.48 612.994 2349 608.98L2396.3 605.54L2404.04 700.14L2363.62 702.72C2341.26 703.867 2323.49 707.594 2310.3 713.9C2297.12 719.634 2287.66 727.947 2281.92 738.84C2276.19 749.16 2273.32 762.92 2273.32 780.12V809.36L2256.98 794.74H2383.4V891.92H2273.32V1217H2143.46Z" fill="black"/>
<path d="M2708.59 1226.46C2658.71 1226.46 2615.71 1217.57 2579.59 1199.8C2544.04 1181.45 2516.52 1155.94 2497.03 1123.26C2478.11 1090.01 2468.65 1051.02 2468.65 1006.3C2468.65 962.727 2477.82 924.6 2496.17 891.92C2514.51 858.667 2540.03 832.867 2572.71 814.52C2605.96 795.6 2643.51 786.14 2685.37 786.14C2726.65 786.14 2762.19 795.027 2792.01 812.8C2821.82 830 2844.75 854.654 2860.81 886.76C2877.43 918.867 2885.75 956.994 2885.75 1001.14V1033.82H2575.29V966.74H2792.01L2778.25 978.78C2778.25 943.807 2770.51 917.434 2755.03 899.66C2740.12 881.314 2718.62 872.14 2690.53 872.14C2669.31 872.14 2651.25 877.014 2636.35 886.76C2621.44 896.507 2609.97 910.554 2601.95 928.9C2593.92 947.247 2589.91 969.32 2589.91 995.12V1002C2589.91 1031.24 2594.21 1055.32 2602.81 1074.24C2611.98 1092.59 2625.45 1106.35 2643.23 1115.52C2661.57 1124.69 2684.22 1129.28 2711.17 1129.28C2734.1 1129.28 2757.32 1125.84 2780.83 1118.96C2804.33 1112.08 2825.55 1101.47 2844.47 1087.14L2878.87 1174C2857.65 1190.05 2831.57 1202.95 2800.61 1212.7C2770.22 1221.87 2739.55 1226.46 2708.59 1226.46Z" fill="black"/>
<path d="M3178.86 1226.46C3124.39 1226.46 3084.54 1212.41 3059.32 1184.32C3034.09 1155.65 3021.48 1113.23 3021.48 1057.04V610.7H3151.34V1051.88C3151.34 1066.21 3153.63 1078.83 3158.22 1089.72C3162.8 1100.04 3169.4 1107.78 3178 1112.94C3187.17 1118.1 3198.64 1120.68 3212.4 1120.68C3218.13 1120.68 3224.15 1120.39 3230.46 1119.82C3236.76 1119.25 3242.78 1118.1 3248.52 1116.38L3246.8 1217C3235.9 1219.87 3224.72 1222.16 3213.26 1223.88C3202.36 1225.6 3190.9 1226.46 3178.86 1226.46Z" fill="black"/>
<path d="M3362.9 713.04V591.78H3503.08V713.04H3362.9ZM3368.06 1217V794.74H3497.92V1217H3368.06Z" fill="black"/>
<path d="M3658.38 1217V794.74H3785.66V873.86H3776.2C3789.39 845.767 3808.88 824.267 3834.68 809.36C3861.05 793.88 3890.87 786.14 3924.12 786.14C3957.95 786.14 3985.75 792.734 4007.54 805.92C4029.33 818.534 4045.67 838.027 4056.56 864.4C4067.45 890.2 4072.9 923.167 4072.9 963.3V1217H3943.04V969.32C3943.04 949.827 3940.46 934.06 3935.3 922.02C3930.71 909.407 3923.55 900.52 3913.8 895.36C3904.63 889.627 3892.87 886.76 3878.54 886.76C3860.19 886.76 3844.14 890.774 3830.38 898.8C3817.19 906.254 3806.87 917.147 3799.42 931.48C3791.97 945.814 3788.24 962.44 3788.24 981.36V1217H3658.38Z" fill="black"/>
<path d="M4449.35 1226.46C4399.47 1226.46 4356.47 1217.57 4320.35 1199.8C4284.8 1181.45 4257.28 1155.94 4237.79 1123.26C4218.87 1090.01 4209.41 1051.02 4209.41 1006.3C4209.41 962.727 4218.58 924.6 4236.93 891.92C4255.27 858.667 4280.79 832.867 4313.47 814.52C4346.72 795.6 4384.27 786.14 4426.13 786.14C4467.41 786.14 4502.95 795.027 4532.77 812.8C4562.58 830 4585.51 854.654 4601.57 886.76C4618.19 918.867 4626.51 956.994 4626.51 1001.14V1033.82H4316.05V966.74H4532.77L4519.01 978.78C4519.01 943.807 4511.27 917.434 4495.79 899.66C4480.88 881.314 4459.38 872.14 4431.29 872.14C4410.07 872.14 4392.01 877.014 4377.11 886.76C4362.2 896.507 4350.73 910.554 4342.71 928.9C4334.68 947.247 4330.67 969.32 4330.67 995.12V1002C4330.67 1031.24 4334.97 1055.32 4343.57 1074.24C4352.74 1092.59 4366.21 1106.35 4383.99 1115.52C4402.33 1124.69 4424.98 1129.28 4451.93 1129.28C4474.86 1129.28 4498.08 1125.84 4521.59 1118.96C4545.09 1112.08 4566.31 1101.47 4585.23 1087.14L4619.63 1174C4598.41 1190.05 4572.33 1202.95 4541.37 1212.7C4510.98 1221.87 4480.31 1226.46 4449.35 1226.46Z" fill="black"/>
<path d="M4785.46 1217V610.7H4821.58V902.24H4811.26C4822.73 866.12 4842.51 839.174 4870.6 821.4C4898.69 803.054 4931.09 793.88 4967.78 793.88C5001.03 793.88 5028.55 799.9 5050.34 811.94C5072.7 823.407 5089.33 840.894 5100.22 864.4C5111.11 887.907 5116.56 917.147 5116.56 952.12V1217H5080.44V955.56C5080.44 926.32 5076.43 902.24 5068.4 883.32C5060.95 864.4 5048.91 850.354 5032.28 841.18C5015.65 832.007 4994.15 827.42 4967.78 827.42C4938.54 827.42 4912.74 833.727 4890.38 846.34C4868.59 858.38 4851.68 875.867 4839.64 898.8C4827.6 921.16 4821.58 947.534 4821.58 977.92V1217H4785.46Z" fill="black"/>
<path d="M5493.87 1223.88C5452.59 1223.88 5417.04 1215.28 5387.23 1198.08C5357.42 1180.88 5334.2 1156.51 5317.57 1124.98C5301.52 1092.87 5293.49 1054.75 5293.49 1010.6C5293.49 967.027 5301.52 929.187 5317.57 897.08C5334.2 864.4 5356.84 839.174 5385.51 821.4C5414.75 803.054 5448.29 793.88 5486.13 793.88C5522.25 793.88 5552.92 801.907 5578.15 817.96C5603.38 834.014 5622.58 856.947 5635.77 886.76C5649.53 916 5656.41 951.547 5656.41 993.4V1015.76H5316.71V983.94H5637.49L5622.87 994.26C5622.87 942.087 5611.4 901.094 5588.47 871.28C5565.54 841.467 5531.14 826.56 5485.27 826.56C5452.02 826.56 5423.64 834.587 5400.13 850.64C5377.2 866.12 5359.71 887.334 5347.67 914.28C5336.2 941.227 5330.47 971.9 5330.47 1006.3V1010.6C5330.47 1048.44 5336.78 1080.83 5349.39 1107.78C5362 1134.73 5380.35 1155.37 5404.43 1169.7C5429.08 1183.46 5458.32 1190.34 5492.15 1190.34C5517.95 1190.34 5542.03 1186.33 5564.39 1178.3C5587.32 1169.7 5609.97 1155.65 5632.33 1136.16L5649.53 1165.4C5631.76 1183.17 5608.82 1197.51 5580.73 1208.4C5552.64 1218.72 5523.68 1223.88 5493.87 1223.88Z" fill="black"/>
<path d="M5956.93 1223.88C5929.98 1223.88 5905.61 1218.43 5883.83 1207.54C5862.04 1196.65 5844.84 1182.03 5832.23 1163.68C5819.61 1144.76 5813.31 1123.83 5813.31 1100.9C5813.31 1069.94 5820.76 1045.86 5835.67 1028.66C5851.15 1010.89 5877.23 998.56 5913.93 991.68C5951.19 984.227 6002.22 980.5 6067.01 980.5H6102.27V1012.32H6068.73C6026.3 1012.32 5991.04 1013.75 5962.95 1016.62C5934.85 1018.91 5912.78 1023.5 5896.73 1030.38C5880.67 1036.69 5869.21 1045.29 5862.33 1056.18C5856.02 1067.07 5852.87 1080.83 5852.87 1097.46C5852.87 1124.98 5862.33 1147.63 5881.25 1165.4C5900.74 1182.6 5926.83 1191.2 5959.51 1191.2C5985.88 1191.2 6008.81 1184.89 6028.31 1172.28C6048.37 1159.09 6064.14 1141.61 6075.61 1119.82C6087.07 1097.46 6092.81 1072.23 6092.81 1044.14V946.1C6092.81 904.82 6084.78 874.72 6068.73 855.8C6052.67 836.88 6026.87 827.42 5991.33 827.42C5965.53 827.42 5941.16 831.147 5918.23 838.6C5895.87 846.054 5872.36 858.094 5847.71 874.72L5830.51 843.76C5845.41 833.44 5861.47 824.554 5878.67 817.1C5896.44 809.647 5914.79 803.914 5933.71 799.9C5952.63 795.887 5971.26 793.88 5989.61 793.88C6021.14 793.88 6047.23 799.327 6067.87 810.22C6088.51 821.114 6103.7 837.74 6113.45 860.1C6123.77 882.46 6128.93 911.127 6128.93 946.1V1217H6093.67V1112.94H6103.13C6097.39 1135.87 6087.65 1155.65 6073.89 1172.28C6060.13 1188.91 6043.21 1201.81 6023.15 1210.98C6003.65 1219.58 5981.58 1223.88 5956.93 1223.88Z" fill="black"/>
<path d="M6446.84 1223.88C6410.72 1223.88 6382.63 1212.41 6362.56 1189.48C6343.07 1165.97 6333.32 1133.29 6333.32 1091.44V610.7H6369.44V1085.42C6369.44 1108.35 6372.31 1127.85 6378.04 1143.9C6384.35 1159.38 6393.52 1171.13 6405.56 1179.16C6417.6 1186.61 6432.51 1190.34 6450.28 1190.34C6457.74 1190.34 6464.62 1190.05 6470.92 1189.48C6477.8 1188.33 6484.4 1186.9 6490.7 1185.18L6488.12 1218.72C6480.67 1220.44 6473.5 1221.59 6466.62 1222.16C6459.74 1223.31 6453.15 1223.88 6446.84 1223.88Z" fill="black"/>
<path d="M6772.36 1223.88C6728.79 1223.88 6696.11 1211.55 6674.32 1186.9C6652.53 1162.25 6641.64 1127.56 6641.64 1082.84V831.72H6558.22V800.76H6641.64V670.9H6677.76V800.76H6814.5V831.72H6677.76V1075.1C6677.76 1112.37 6685.21 1141.03 6700.12 1161.1C6715.03 1180.59 6739.97 1190.34 6774.94 1190.34C6785.26 1190.34 6795.01 1189.19 6804.18 1186.9C6813.93 1184.03 6821.95 1181.45 6828.26 1179.16L6836.86 1209.26C6831.7 1212.7 6822.53 1215.85 6809.34 1218.72C6796.15 1222.16 6783.83 1223.88 6772.36 1223.88Z" fill="black"/>
<path d="M6961.83 1217V610.7H6997.95V902.24H6987.63C6999.1 866.12 7018.88 839.174 7046.97 821.4C7075.06 803.054 7107.46 793.88 7144.15 793.88C7177.4 793.88 7204.92 799.9 7226.71 811.94C7249.07 823.407 7265.7 840.894 7276.59 864.4C7287.48 887.907 7292.93 917.147 7292.93 952.12V1217H7256.81V955.56C7256.81 926.32 7252.8 902.24 7244.77 883.32C7237.32 864.4 7225.28 850.354 7208.65 841.18C7192.02 832.007 7170.52 827.42 7144.15 827.42C7114.91 827.42 7089.11 833.727 7066.75 846.34C7044.96 858.38 7028.05 875.867 7016.01 898.8C7003.97 921.16 6997.95 947.534 6997.95 977.92V1217H6961.83Z" fill="black"/>
<path d="M129.033 709.112V30.0192C129.033 16.2015 140.235 5 154.052 5C167.87 5 179.072 16.2015 179.072 30.0192V709.112C179.072 824.395 207.873 906.263 261.096 959.486C314.319 1012.71 396.187 1041.51 511.47 1041.51H1190.56C1204.38 1041.51 1215.58 1052.71 1215.58 1066.53C1215.58 1080.35 1204.38 1091.55 1190.56 1091.55H511.47C388.474 1091.55 291.634 1060.78 225.717 994.865C159.801 928.948 129.033 832.108 129.033 709.112Z" fill="#10B981"/>
<path d="M250.555 709.112V30.0192C250.555 16.2015 261.757 5 275.574 5C289.392 5 300.594 16.2015 300.594 30.0192V709.112C300.594 783.888 319.269 835.375 352.238 868.345C385.207 901.314 436.695 919.989 511.47 919.989H1190.56C1204.38 919.989 1215.58 931.19 1215.58 945.008C1215.58 958.825 1204.38 970.027 1190.56 970.027H511.47C428.981 970.027 362.522 949.386 316.859 903.723C271.196 858.061 250.555 791.601 250.555 709.112Z" fill="#10B981"/>
<path d="M372.077 709.112V30.0192C372.077 16.2015 383.279 5 397.096 5C410.914 5 422.115 16.2015 422.115 30.0192V709.112C422.115 743.38 430.664 764.488 443.379 777.203C456.094 789.919 477.202 798.467 511.47 798.467H1190.56C1204.38 798.467 1215.58 809.668 1215.58 823.486C1215.58 837.304 1204.38 848.505 1190.56 848.505H511.47C469.489 848.505 433.409 837.991 408 812.582C382.591 787.173 372.077 751.093 372.077 709.112Z" fill="#10B981"/>
<path d="M5 708.93L7.4227 30.0191C7.4227 16.2014 18.615 5 32.4213 5C46.2277 5 57.4199 16.2014 57.4199 30.0191L54.9972 708.93C54.9972 824.212 83.8352 953.619 175.44 1045.22C270.543 1140.33 396.341 1163.94 511.529 1163.94H1190.58C1204.39 1163.94 1215.58 1175.15 1215.58 1188.96C1215.58 1202.78 1204.39 1213.98 1190.58 1213.98H511.529C310.722 1213.98 205.952 1146.52 140.09 1080.6C74.2281 1014.69 5 898.226 5 708.93Z" fill="#10B981"/>
</svg>
