<svg width="2022" height="2022" viewBox="0 0 2022 2022" fill="none" xmlns="http://www.w3.org/2000/svg">
<rect width="2022" height="2022" fill="#10B981"/>
<path d="M530.033 1111.11V432.019C530.033 418.201 541.235 407 555.052 407C568.87 407 580.072 418.201 580.072 432.019V1111.11C580.072 1226.39 608.873 1308.26 662.096 1361.49C715.319 1414.71 797.187 1443.51 912.47 1443.51H1591.56C1605.38 1443.51 1616.58 1454.71 1616.58 1468.53C1616.58 1482.35 1605.38 1493.55 1591.56 1493.55H912.47C789.474 1493.55 692.634 1462.78 626.717 1396.86C560.801 1330.95 530.033 1234.11 530.033 1111.11Z" fill="white"/>
<path d="M651.555 1111.11V432.019C651.555 418.201 662.757 407 676.574 407C690.392 407 701.594 418.201 701.594 432.019V1111.11C701.594 1185.89 720.269 1237.38 753.238 1270.34C786.207 1303.31 837.695 1321.99 912.47 1321.99H1591.56C1605.38 1321.99 1616.58 1333.19 1616.58 1347.01C1616.58 1360.83 1605.38 1372.03 1591.56 1372.03H912.47C829.981 1372.03 763.522 1351.39 717.859 1305.72C672.196 1260.06 651.555 1193.6 651.555 1111.11Z" fill="white"/>
<path d="M773.077 1111.11V432.019C773.077 418.201 784.279 407 798.096 407C811.914 407 823.115 418.201 823.115 432.019V1111.11C823.115 1145.38 831.664 1166.49 844.379 1179.2C857.094 1191.92 878.202 1200.47 912.47 1200.47H1591.56C1605.38 1200.47 1616.58 1211.67 1616.58 1225.49C1616.58 1239.3 1605.38 1250.51 1591.56 1250.51H912.47C870.489 1250.51 834.409 1239.99 809 1214.58C783.591 1189.17 773.077 1153.09 773.077 1111.11Z" fill="white"/>
<path d="M406 1110.93L408.423 432.019C408.423 418.201 419.615 407 433.421 407C447.228 407 458.42 418.201 458.42 432.019L455.997 1110.93C455.997 1226.21 484.835 1355.62 576.44 1447.22C671.543 1542.33 797.341 1565.94 912.529 1565.94H1591.58C1605.39 1565.94 1616.58 1577.15 1616.58 1590.96C1616.58 1604.78 1605.39 1615.98 1591.58 1615.98H912.529C711.722 1615.98 606.952 1548.52 541.09 1482.6C475.228 1416.69 406 1300.23 406 1110.93Z" fill="white"/>
<path d="M530.033 1111.11V432.019C530.033 418.201 541.235 407 555.052 407C568.87 407 580.072 418.201 580.072 432.019V1111.11C580.072 1226.39 608.873 1308.26 662.096 1361.49C715.319 1414.71 797.187 1443.51 912.47 1443.51H1591.56C1605.38 1443.51 1616.58 1454.71 1616.58 1468.53C1616.58 1482.35 1605.38 1493.55 1591.56 1493.55H912.47C789.474 1493.55 692.634 1462.78 626.717 1396.86C560.801 1330.95 530.033 1234.11 530.033 1111.11Z" stroke="white" stroke-width="10" stroke-linecap="round" stroke-linejoin="round"/>
<path d="M651.555 1111.11V432.019C651.555 418.201 662.757 407 676.574 407C690.392 407 701.594 418.201 701.594 432.019V1111.11C701.594 1185.89 720.269 1237.38 753.238 1270.34C786.207 1303.31 837.695 1321.99 912.47 1321.99H1591.56C1605.38 1321.99 1616.58 1333.19 1616.58 1347.01C1616.58 1360.83 1605.38 1372.03 1591.56 1372.03H912.47C829.981 1372.03 763.522 1351.39 717.859 1305.72C672.196 1260.06 651.555 1193.6 651.555 1111.11Z" stroke="white" stroke-width="10" stroke-linecap="round" stroke-linejoin="round"/>
<path d="M773.077 1111.11V432.019C773.077 418.201 784.279 407 798.096 407C811.914 407 823.115 418.201 823.115 432.019V1111.11C823.115 1145.38 831.664 1166.49 844.379 1179.2C857.094 1191.92 878.202 1200.47 912.47 1200.47H1591.56C1605.38 1200.47 1616.58 1211.67 1616.58 1225.49C1616.58 1239.3 1605.38 1250.51 1591.56 1250.51H912.47C870.489 1250.51 834.409 1239.99 809 1214.58C783.591 1189.17 773.077 1153.09 773.077 1111.11Z" stroke="white" stroke-width="10" stroke-linecap="round" stroke-linejoin="round"/>
<path d="M406 1110.93L408.423 432.019C408.423 418.201 419.615 407 433.421 407C447.228 407 458.42 418.201 458.42 432.019L455.997 1110.93C455.997 1226.21 484.835 1355.62 576.44 1447.22C671.543 1542.33 797.341 1565.94 912.529 1565.94H1591.58C1605.39 1565.94 1616.58 1577.15 1616.58 1590.96C1616.58 1604.78 1605.39 1615.98 1591.58 1615.98H912.529C711.722 1615.98 606.952 1548.52 541.09 1482.6C475.228 1416.69 406 1300.23 406 1110.93Z" stroke="white" stroke-width="10" stroke-linecap="round" stroke-linejoin="round"/>
</svg>
