<svg width="142" height="46" xmlns="http://www.w3.org/2000/svg">
 <!-- Created with Method Draw - http://github.com/duopixel/Method-Draw/ -->
 <g>
  <title>Layer 1</title>
  <rect stroke="#042470" id="svg_26" height="47.34571" width="115.91535" y="-1.08101" x="12.83825" fill-opacity="null" stroke-width="1.5" fill="#042470"/>
  <rect stroke="#042470" id="svg_25" height="21.63209" width="172.64857" y="11.97988" x="-14.09983" fill-opacity="null" stroke-width="1.5" fill="#042470"/>
  <rect stroke="#ffffff" id="svg_8" height="21.42857" width="9.36508" y="11.9991" x="21.07134" fill-opacity="null" stroke-width="1.5" fill="#ffffff"/>
  <rect transform="rotate(90.32460021972656 25.753875732421875,22.71340942382813) " stroke="#ffffff" id="svg_9" height="21.42857" width="9.36508" y="11.9991" x="21.07134" fill-opacity="null" stroke-width="1.5" fill="#ffffff"/>
  <text stroke="#ffffff" transform="matrix(7.119001388549805,0,0,1,-2222.249207407236,0) " xml:space="preserve" text-anchor="start" font-family="Helvetica, Arial, sans-serif" font-size="24" id="svg_10" y="354.98263" x="362.89345" fill-opacity="null" stroke-opacity="null" stroke-width="0" fill="#000000"/>
  <text stroke="#ffffff" transform="matrix(0.52343305828204,0,0,0.49491504921458707,152.54919673905908,182.3740545736555) " font-weight="bold" xml:space="preserve" text-anchor="start" font-family="Helvetica, Arial, sans-serif" font-size="24" id="svg_12" y="-327.96483" x="-204.57566" stroke-opacity="null" stroke-width="0" fill="#ffffff">Læknastofur</text>
  <text stroke="#ffffff" transform="matrix(0.5337146749962868,0,0,0.47044826242438376,174.42850033017814,157.41661795496938) " font-weight="bold" xml:space="preserve" text-anchor="start" font-family="Helvetica, Arial, sans-serif" font-size="24" id="svg_14" y="-265.58987" x="-241.81603" stroke-opacity="null" stroke-width="0" fill="#ffffff">Akureyrar</text>
  <rect transform="rotate(17.230409622192383 82.56527709960933,34.11221313476564) " id="svg_15" height="3.3191" width="2.59248" y="32.45265" x="81.26903" stroke-width="1.5" fill="#042470"/>
  <path id="svg_23" d="m77.84691,49.01181c-2.34325,0.25332 -0.82331,-2.27992 -0.82331,-2.34324c0,0.06332 2.53325,2.53323 2.53325,2.53323" opacity="0.5" stroke-opacity="null" stroke-width="1.5" stroke="null" fill="#ffffff"/>
  <rect stroke="null" transform="rotate(21.691131591796875 84.85424804687497,33.86029052734377) " id="svg_17" height="3.55105" width="1.47046" y="32.08477" x="84.11903" stroke-width="1.5" fill="#ffffff"/>
  <rect id="svg_24" height="1.58328" width="2.40659" y="34.95229" x="83.1034" stroke-width="1.5" fill="#042470"/>
 </g>
</svg>