<svg width="256" height="256" viewBox="0 0 256 256" fill="none" xmlns="http://www.w3.org/2000/svg">
<path d="M103.756 187.468L97.7827 179.575L176.179 136.314L93.981 97.9214L99.2627 89.6759L197.675 135.642L103.756 187.468Z" fill="#6D6E71"/>
<path d="M126.359 96.7209C126.359 109.155 116.278 119.237 103.843 119.237C91.4091 119.237 81.3315 109.155 81.3315 96.7209C81.3315 84.2889 91.4091 74.2096 103.843 74.2096C116.278 74.2096 126.359 84.2889 126.359 96.7209Z" fill="#3198D4"/>
<path d="M131.157 184.573C131.157 199.883 118.743 212.297 103.431 212.297C88.121 212.297 75.7115 199.883 75.7115 184.573C75.7115 169.265 88.121 156.854 103.431 156.854C118.743 156.854 131.157 169.265 131.157 184.573Z" fill="#8DC63F"/>
<path d="M197.885 138.454C197.885 148.353 189.86 156.378 179.96 156.378C170.063 156.378 162.041 148.353 162.041 138.454C162.041 128.558 170.063 120.534 179.96 120.534C189.86 120.534 197.885 128.558 197.885 138.454Z" fill="#ED1C24"/>
<path d="M128 253.619C66.2428 253.619 16 203.376 16 141.62C16 118.138 23.1394 95.599 36.646 76.4402C50.0486 57.428 68.4144 43.5482 89.7579 36.3009C90.9471 35.8968 90.9612 34.634 90.9612 34.6216V19.6032C90.9612 19.0344 90.6728 18.7467 90.1041 18.7467H85.6281C82.8545 18.7467 81.8474 16.4845 81.8474 14.9648V5.78355C81.8474 3.00883 84.1084 2.00169 85.6281 2.00169H106.316C109.09 2.00169 110.097 4.26328 110.097 5.78355L110.089 46.3168C110.089 48.9819 108.075 50.36 106.886 50.7545L98.7402 53.4562C80.3782 59.5452 64.5853 71.0565 53.0695 86.7471C41.3327 102.738 35.1291 121.713 35.1291 141.62C35.1291 166.426 44.7897 189.748 62.3305 207.287C79.8668 224.829 103.189 234.489 128 234.489C152.807 234.489 176.129 224.829 193.667 207.289C211.207 189.75 220.868 166.428 220.868 141.62C220.868 121.711 214.664 102.736 202.929 86.7471C191.415 71.0571 175.621 59.5452 157.256 53.4562L149.111 50.7545C146.583 49.916 145.908 47.5706 145.908 46.3168V5.78075C145.908 4.26329 146.607 3.07854 147.876 2.444C148.721 2.02193 149.534 2 149.689 2L170.369 2.00169C173.143 2.00169 174.15 4.26328 174.15 5.78355V14.9648C174.15 17.7395 171.889 18.7467 170.369 18.7467H165.895C165.327 18.7467 165.038 19.0344 165.038 19.6032V34.6216C165.038 35.8041 166.109 36.2498 166.255 36.3054C187.594 43.5544 205.954 57.4331 219.354 76.4407C232.861 95.6002 240 118.138 240 141.62C240 203.376 189.757 253.619 128 253.619Z" fill="#6D6E71"/>
</svg>
