<svg xmlns="http://www.w3.org/2000/svg" viewBox="0 0 64 64" width="64" height="64">
    <rect width="64" height="64" rx="16" fill="#EFF4FF"/>
    <g transform="translate(8,8)">
    <g stroke="#2563EB" stroke-width="2.2" stroke-linecap="round" stroke-linejoin="round">
      <path d="M11.5,26.5
               C13.5,23.8 15,23.2 16.5,23.2 C18.3,23.2 19.2,24.4 20,25.2
               C21.3,26.2 22.7,26.4 24,26.4 C25.3,26.4 26.7,26.2 28,25.2
               C28.8,24.4 29.7,23.2 31.5,23.2 C33,23.2 34.5,23.8 36.5,26.5
               C33.5,33.8 14.5,33.8 11.5,26.5 Z" fill="#DBEAFE"/>
      <path d="M11.5,26.5 C17,29.2 31,29.2 36.5,26.5" fill="none"/>
    </g>
    <g stroke="#F43F5E" stroke-width="1.6">
      <circle cx="15.4" cy="24.1" r="1.9" fill="#FFE1E6"/>
      <circle cx="17.9" cy="22.7" r="1.4" fill="#FFE1E6"/>
      <circle cx="16.2" cy="21.4" r="1.1" fill="#FFE1E6"/>
    </g>
    <path d="M12.2,20.4 l-1.4,-1.2 M21.2,21.2 l1.6,-1.3" stroke="#F43F5E" stroke-width="1.4" stroke-linecap="round"/></g></svg>