<svg xmlns="http://www.w3.org/2000/svg" viewBox="0 0 64 64" width="64" height="64">
    <rect width="64" height="64" rx="16" fill="#EFF4FF"/>
    <g transform="translate(8,8)">
    <g stroke="#2563EB" stroke-width="2.2" stroke-linecap="round" stroke-linejoin="round">
      <path d="M16,21 C16,15.5 20.5,13 24,13 C27.5,13 32,15.5 32,21
               C34,22 35,25 35,28.5 C35,34.5 30,38.5 24,38.5
               C18,38.5 13,34.5 13,28.5 C13,25 14,22 16,21 Z" fill="#ffffff"/>
      <path d="M18.5,14.4 l-2.4,-4 M29.5,14.4 l2.4,-4" fill="none"/>
    </g>
    <path d="M24,22.5 C24,22.5 19.6,28 19.6,31 a4.4,4.4 0 0 0 8.8,0 C28.4,28 24,22.5 24,22.5 Z"
          fill="#FFE1E6" stroke="#F43F5E" stroke-width="2.2" stroke-linejoin="round"/>
    <g stroke="#F43F5E" stroke-width="1.8" stroke-linecap="round">
      <path d="M24,38.5 v3.5 M20.5,40.5 l-1.4,2.4 M27.5,40.5 l1.4,2.4"/>
    </g></g></svg>